<svg xmlns="http://www.w3.org/2000/svg" width="1024" height="500" viewBox="0 0 1024 500">
  <rect width="1024" height="500" fill="#284D40"/>
  <circle cx="870" cy="78" r="190" fill="#3D6A58"/>
  <circle cx="934" cy="438" r="248" fill="#1F4035"/>
  <path d="M708 78h204c20 0 36 16 36 36v292c0 20-16 36-36 36H708z"
        fill="#FFF8E8"/>
  <path d="M708 78h28v364h-28c-20 0-36-16-36-36V114c0-20 16-36 36-36z"
        fill="#E8D8B8"/>
  <rect x="778" y="154" width="112" height="16" rx="8" fill="#315C4B"/>
  <rect x="778" y="206" width="112" height="16" rx="8" fill="#315C4B"/>
  <rect x="778" y="258" width="76" height="16" rx="8" fill="#315C4B"/>
  <path d="M840 316l18 18 34-43" fill="none" stroke="#D88463"
        stroke-width="16" stroke-linecap="round" stroke-linejoin="round"/>
  <text x="84" y="172" fill="#FFF8E8" font-family="Droid Sans Fallback"
        font-size="76" font-weight="700">净读</text>
  <text x="328" y="172" fill="#FFF8E8" font-family="DejaVu Sans"
        font-size="68" font-weight="700">TXT</text>
  <text x="88" y="230" fill="#D9E7DF" font-family="Droid Sans Fallback"
        font-size="28" font-weight="500">本地 · 纯净 · 可逆</text>
  <g fill="#FFF8E8" font-family="Droid Sans Fallback" font-size="23">
    <rect x="84" y="286" width="142" height="54" rx="27" fill="#3D6A58"/>
    <text x="107" y="321">乱码定位</text>
    <rect x="242" y="286" width="142" height="54" rx="27" fill="#3D6A58"/>
    <text x="265" y="321">自动滚动</text>
    <rect x="84" y="356" width="142" height="54" rx="27" fill="#3D6A58"/>
    <text x="107" y="391">系统朗读</text>
    <rect x="242" y="356" width="142" height="54" rx="27" fill="#3D6A58"/>
    <text x="265" y="391">净读规则</text>
  </g>
</svg>
